<svg xmlns="http://www.w3.org/2000/svg" viewBox="0 0 512 512"><defs><style>.a{fill:#1e293b;}.b{fill:#eab308;}</style></defs><rect class="a" width="512" height="512" rx="50"/><path class="b" d="M274.26749,365.426a12.70467,12.70467,0,0,0,17.32883-5.06649L355.40065,244.175a12.6,12.6,0,0,0-5.06649-17.32882,9.64092,9.64092,0,0,0-5.90809-1.68337,12.18777,12.18777,0,0,0-10.99148,6.76659l-64.248,116.18456a11.50187,11.50187,0,0,0-1.68336,5.90809,13.29868,13.29868,0,0,0,6.76659,11.40383Z" transform="translate(-144.37931 -143.65517)"/><path class="b" d="M509.58983,360.36039a12.67875,12.67875,0,0,0,10.99148,6.76659,9.74958,9.74958,0,0,0,5.90809-1.68337,12.59985,12.59985,0,0,0,5.06651-17.32883l-63.3734-116.18456c-2.54154-4.22489-6.76659-6.76659-10.99148-6.76659a9.74958,9.74958,0,0,0-5.90809,1.68337,12.59983,12.59983,0,0,0-5.06649,17.32883Z" transform="translate(-144.37931 -143.65517)"/><path class="b" d="M248.91814,412.33079h-2.54153l27.89106,141.53392c2.11245,11.83307,12.67468,20.28286,24.92011,20.28286H501.98266a25.683,25.683,0,0,0,24.9201-20.28286l27.89106-141.53392H248.91814Zm89.5635,129.7h-1.68337a9.004,9.004,0,0,1-8.44979-6.76659l-16.47032-83.65712a8.24486,8.24486,0,0,1,6.76659-9.72064,8.87214,8.87214,0,0,1,10.133,6.76659l16.47032,83.65711a8.475,8.475,0,0,1-6.76659,9.72061Zm70.5515-7.60818a8.44979,8.44979,0,0,1-16.89958,0V449.084a8.44979,8.44979,0,1,1,16.89958,0Zm79.842-82.79945-16.47032,83.65712a8.23175,8.23175,0,0,1-8.44979,6.76659h-1.68335a8.46229,8.46229,0,0,1-6.7666-9.72062l16.89958-84.08382a8.66229,8.66229,0,0,1,10.133-6.76659,8.96316,8.96316,0,0,1,6.33734,10.14945Z" transform="translate(-144.37931 -143.65517)"/><path class="b" d="M552.24858,343.46081h-3.79581a31.26064,31.26064,0,0,1,2.11245,10.56224,28.86487,28.86487,0,0,1-15.21638,25.77861,29.16641,29.16641,0,0,1-14.35787,3.79582,28.86488,28.86488,0,0,1-25.77861-15.21638L481.69606,343.461H319.87844L306.36216,368.3811a29.8192,29.8192,0,0,1-25.77861,15.21638,30.492,30.492,0,0,1-14.35787-3.79582,29.99857,29.99857,0,0,1-13.51628-36.75319h-3.79582a25.77861,25.77861,0,0,0,0,51.55722h302.9206a25.88822,25.88822,0,0,0,25.77861-25.77861c.41259-13.53275-10.99148-25.36583-25.36583-25.36583Z" transform="translate(-144.37931 -143.65517)"/></svg>